<svg xmlns="http://www.w3.org/2000/svg" width="516.69501" height="209.64929" viewBox="0 0 516.69501 209.64929">
  <defs>
    <style>
      .a {
        fill: #fff;
      }
    </style>
  </defs>
  <title>vineyard_cincy_logo-white</title>
  <g>
    <circle class="a" cx="232.18959" cy="32.14229" r="7.32162"/>
    <path class="a" d="M240.98566,164.973c7.63709,0,12.14746,3.40472,12.60724,10.49109h5.98175c-.45978-9.84631-8.18884-15.55212-17.66937-15.55212-13.71075,0-22.2215,11.9635-22.2215,24.47876,0,12.60828,8.0509,24.4798,21.85364,24.4798,10.49213,0,16.56586-5.246,18.03723-15.829H253.5929c-.45978,6.35065-5.42993,10.76691-12.60724,10.76691-8.46893,0-15.32013-8.92664-15.32013-19.50964C225.66553,173.80774,232.51672,164.973,240.98566,164.973Z" transform="translate(-44.43451 -39.63312)"/>
    <rect class="a" x="222.41357" y="121.6593" width="5.51776" height="46.19763"/>
    <path class="a" d="M303.654,159.912a15.8911,15.8911,0,0,0-14.45062,8.37378l-.184-.1839-.27588-6.80945h-5.70587c.184,3.12885.464,6.80945.464,10.39911v35.79852h5.51776V180.894c0-8.2829,4.14252-15.921,13.25519-15.921,7.5451,0,12.1474,4.69324,12.1474,12.70026v29.81677h5.522V178.5929C319.944,173.25592,318.74426,159.912,303.654,159.912Z" transform="translate(-44.43451 -39.63312)"/>
    <path class="a" d="M347.55365,164.973c7.63709,0,12.1474,3.40472,12.60724,10.49109h5.98175c-.45984-9.84631-8.18884-15.55212-17.66937-15.55212-13.71082,0-20.61633,11.9635-20.61633,24.47876,0,12.60828,6.44574,24.4798,20.24847,24.4798,10.49213,0,16.5658-5.246,18.03723-15.829h-5.98175c-.45984,6.35065-5.43,10.76691-12.60724,10.76691-8.46893,0-13.715-8.92664-13.715-19.50964C333.83868,173.80774,339.08472,164.973,347.55365,164.973Z" transform="translate(-44.43451 -39.63312)"/>
    <rect class="a" x="328.98151" y="121.6593" width="5.51776" height="46.19763"/>
    <path class="a" d="M420.99,177.67328v29.81677h5.52191V178.5929c0-5.337-1.1955-18.68091-16.28992-18.68091a15.88488,15.88488,0,0,0-14.44647,8.37378l-.184-.1839-.27588-6.80945H389.6098c.184,3.12885.45984,6.80945.45984,10.39911v35.79852h5.52191V180.894c0-8.2829,4.14252-15.921,13.251-15.921C416.3877,164.973,420.99,169.66626,420.99,177.67328Z" transform="translate(-44.43451 -39.63312)"/>
    <path class="a" d="M468.47614,207.49005h5.522V178.5929c0-5.337-1.19556-18.68091-16.29-18.68091a15.885,15.885,0,0,0-14.44647,8.37378l-.1839-.1839-.27594-6.80945H437.096c.1839,3.12885.45978,6.80945.45978,10.39911v35.79852h5.522V180.894c0-8.2829,4.14246-15.921,13.251-15.921,7.5451,0,12.1474,4.69324,12.1474,12.70026Z" transform="translate(-44.43451 -39.63312)"/>
    <path class="a" d="M516.70221,197.091V175.18823c.1839-10.58307-6.16571-15.27625-16.3819-15.27625-8.83264,0-15.92212,3.58862-17.30151,13.06805h5.88977c.73572-6.25867,5.52191-8.007,11.31976-8.007,6.53351,0,10.40015,2.39313,10.9519,9.93927v4.23346c-6.71747.36786-14.72656-.55286-20.89221,2.11615-5.522,2.30115-9.29242,7.08636-9.29242,13.344,0,9.01862,6.80939,14.26465,15.36609,14.26465,6.25769,0,12.42749-3.68164,14.45068-7.54614l.27588-.64478h.184l.1839,6.81042H517.162C516.97809,204.36127,516.61023,200.67963,516.70221,197.091Zm-19.32471,6.71741c-5.61389,0-10.40015-2.94489-10.40015-9.20251,0-11.59564,16.3819-10.12317,24.20288-10.39911C511.732,193.87018,509.43292,203.80841,497.3775,203.80841Z" transform="translate(-44.43451 -39.63312)"/>
    <path class="a" d="M547.99457,203.25665a16.29111,16.29111,0,0,1-4.78625.55176c-4.23444,0-6.44159-2.30011-6.34961-6.53351V166.35352h10.48792v-5.0611H536.8587V149.052l-5.52191,2.39313v9.84729h-9.20465v5.0611h9.20465v28.80524c0,6.25763-.64374,13.71179,11.04388,13.71179a22.99009,22.99009,0,0,0,5.61389-.82867Z" transform="translate(-44.43451 -39.63312)"/>
    <rect class="a" x="509.99744" y="121.6593" width="5.52191" height="46.19763"/>
    <circle class="a" cx="225.12378" cy="109.42746" r="3.80057"/>
    <circle class="a" cx="331.86732" cy="109.51663" r="3.80058"/>
    <circle class="a" cx="512.89439" cy="109.42746" r="3.80058"/>
    <path class="a" d="M363.10205,85.9809a23.21316,23.21316,0,0,0-13.01068,3.84772c-7.78491,5.40417-9.61749,14.384-9.61749,21.89685,0,7.41943,1.73889,13.64862,5.95233,18.0448,4.85571,5.04279,12.36877,5.77393,16.31006,5.77393,6.77753,0,12.82788-1.83252,16.21643-5.40405a15.51876,15.51876,0,0,0,4.39661-10.07672H370.98053c-1.284,5.1319-4.67255,6.41168-8.0614,6.41168-9.439,0-9.439-9.34552-9.439-12.36841h31.05969c.18689-3.84808.36548-10.62964-2.74695-16.95209C377.57513,88.54462,369.69653,85.9809,363.10205,85.9809Zm-9.16272,19.60931c.27643-5.40833,2.75092-10.35742,8.70361-10.35742,7.87854,0,8.06549,8.24426,8.06549,10.35742Z" transform="translate(-44.43451 -39.63312)"/>
    <rect class="a" x="225.40363" y="47.81451" width="13.56342" height="46.35767"/>
    <polygon class="a" points="195.904 79.329 185.462 47.904 170.985 47.904 187.937 94.172 202.958 94.172 219.634 47.904 206.534 47.904 195.904 79.329"/>
    <path class="a" d="M335.34174,133.8053V108.79187c0-8.61-.27631-10.9953-1.2796-13.83551-1.19061-3.20166-5.043-8.70343-14.11206-8.70343-10.07672,0-13.74188,5.95673-15.02167,8.06555l-.36987-6.96448H291.55219c.27222,3.206.27222,8.24426.27222,8.43152V133.8053H305.477v-27.1181c0-3.57587.82483-5.8634,1.64966-7.054a8.42031,8.42031,0,0,1,7.05377-3.57562,7.06313,7.06313,0,0,1,6.5946,3.93719,11.02184,11.02184,0,0,1,.73553,5.04272V133.8053Z" transform="translate(-44.43451 -39.63312)"/>
    <path class="a" d="M482.5105,133.8053h13.55457V110.98993c0-5.76978.82483-12.82355,14.56683-11.54364V87.26483c-10.991-.5528-14.014,5.03845-15.75732,8.97546l-.27209-8.88629H481.86823c.27643,2.65741.64227,9.34564.64227,11.5437Z" transform="translate(-44.43451 -39.63312)"/>
    <polygon class="a" points="353.28 110.518 366.887 110.518 372.1 93.347 389.596 47.904 376.131 47.904 365.778 79.967 355.612 47.904 340.947 47.904 358.724 94.355 353.28 110.518"/>
    <path class="a" d="M533.28137,134.71936a16.1945,16.1945,0,0,0,8.97571-2.38092,12.45917,12.45917,0,0,0,4.67279-5.22144l.36548,6.68829h13.742c-.18292-1.74335-.3656-4.76624-.3656-7.51312V67.65948H547.0191V93.22156c-1.18616-1.65381-4.67273-6.3266-13.00629-6.3266-12.09662,0-20.43451,9.52826-20.43451,24.83051C513.57831,126.19891,520.91284,134.71936,533.28137,134.71936ZM537.227,95.78552c6.13965,0,10.07684,4.94476,10.07684,14.0141,0,2.29156-.1828,7.05774-2.19806,10.9057a9.78384,9.78384,0,0,1-8.61,5.22137c-6.78156,0-9.34552-6.871-9.34552-14.56671C527.15027,106.68719,528.1579,95.78552,537.227,95.78552Z" transform="translate(-44.43451 -39.63312)"/>
    <path class="a" d="M449.44385,134.90216c2.56818,0,8.70367,0,13.83118-7.41931a36.94671,36.94671,0,0,0,.45935,6.32245h12.2749a55.88579,55.88579,0,0,1-1.097-11.7265l-.08929-18.60175c0-2.10461-.09363-7.60223-3.21008-11.3609-4.57922-5.31042-12.64056-5.9527-16.48853-5.9527-4.39636,0-9.80066.73151-14.01843,3.75439-4.85547,3.48236-5.1319,8.43146-5.22119,10.90594h13.2829a6.96845,6.96845,0,0,1,1.00739-4.12415,6.17251,6.17251,0,0,1,5.13214-2.56812c1.28394,0,4.85547.45911,6.046,3.85205.5528,1.64966.63794,3.11676.63794,6.13965-4.48584,0-12.64087,0-18.32117,2.564-8.52069,3.93726-9.80054,10.71881-9.80054,14.37958a14.31781,14.31781,0,0,0,4.03088,10.17035C439.73273,132.98047,442.75562,134.90216,449.44385,134.90216Zm12.54724-22.90027c0,4.945-.17877,8.52063-2.564,11.45007a7.67748,7.67748,0,0,1-5.76953,2.65741,6.38342,6.38342,0,0,1-6.599-6.59875C447.05853,114.013,453.29181,111.26636,461.99109,112.00189Z" transform="translate(-44.43451 -39.63312)"/>
    <path class="a" d="M424.76605,227.91028c2.37457,0,4.74915,1.47583,4.9104,3.69086h3.36926c-.35309-4.13983-3.69-6.32263-8.15063-6.45074-7.76715-.22491-10.269,6.38623-10.269,12.06641,0,6.48218,2.72766,12.06561,9.56287,12.06561,4.52515,0,8.43915-2.56726,8.75995-6.45h-3.3692c-.38531,2.47046-2.63086,3.69006-5.10223,3.69006-5.03766,0-6.48212-4.52429-6.48212-9.30573C417.99536,233.14063,419.0545,227.91028,424.76605,227.91028Z" transform="translate(-44.43451 -39.63312)"/>
    <polygon class="a" points="409.796 195.947 398.789 195.947 398.789 185.998 395.581 185.998 395.581 209.168 398.789 209.168 398.789 198.706 409.796 198.706 409.796 209.168 413.006 209.168 413.006 185.998 409.796 185.998 409.796 195.947"/>
    <path class="a" d="M481.80261,240.39337c-.0968,3.97943-2.47137,6.12915-6.12915,6.12915-3.65955,0-6.03412-2.14972-6.13086-6.12915V225.63153h-3.20795v13.99213c-.0968,5.96869,3.0484,9.65875,9.33881,9.65875,6.28864,0,9.43384-3.69006,9.337-9.65875V225.63153h-3.20789Z" transform="translate(-44.43451 -39.63312)"/>
    <path class="a" d="M505.61829,237.08777v-.0636a5.502,5.502,0,0,0,4.36566-5.58429c0-4.58881-4.01257-5.80835-7.89435-5.80835h-8.27972v23.16968h3.20972V238.3396h4.49115c1.28491.0968,2.56812,0,3.49823,1.05914,1.05914,1.155,1.05914,3.04846,1.31543,5.13446.16132,1.37994.54657,2.88806.83514,4.268h3.43372a33.93925,33.93925,0,0,1-1.44446-6.96338C508.79578,239.23834,508.41046,237.76251,505.61829,237.08777Zm-3.3692-1.50806h-5.294v-7.18829h5.294c3.56274.1604,4.36566,1.76526,4.36566,3.59418C506.61475,233.81537,505.81183,235.41931,502.24908,235.57971Z" transform="translate(-44.43451 -39.63312)"/>
    <path class="a" d="M527.28522,227.91028c2.37457,0,4.74921,1.47583,4.91046,3.69086h3.3692c-.353-4.13983-3.69-6.32263-8.15063-6.45074-7.76709-.22491-10.26892,6.38623-10.26892,12.06641,0,6.48218,2.7276,12.06561,9.56287,12.06561,4.52515,0,8.43915-2.56726,8.75995-6.45h-3.3692c-.38531,2.47046-2.63086,3.69006-5.10223,3.69006-5.03772,0-6.48218-4.52429-6.48218-9.30573C520.51453,233.14063,521.57367,227.91028,527.28522,227.91028Z" transform="translate(-44.43451 -39.63312)"/>
    <polygon class="a" points="512.315 195.947 501.308 195.947 501.308 185.998 498.1 185.998 498.1 209.168 501.308 209.168 501.308 198.706 512.315 198.706 512.315 209.168 515.525 209.168 515.525 185.998 512.315 185.998 512.315 195.947"/>
    <circle class="a" cx="67.63203" cy="62.39362" r="17.92229"/>
    <circle class="a" cx="117.3331" cy="62.39362" r="17.92316"/>
    <path class="a" d="M80.278,102.01715A17.92175,17.92175,0,1,0,62.36,119.94434,17.91812,17.91812,0,0,0,80.278,102.01715Z" transform="translate(-44.43451 -39.63312)"/>
    <circle class="a" cx="42.89285" cy="17.92314" r="17.91901"/>
    <path class="a" d="M136.90839,128.57935a17.92091,17.92091,0,1,0,17.93823,17.92352A17.92791,17.92791,0,0,0,136.90839,128.57935Z" transform="translate(-44.43451 -39.63312)"/>
    <path class="a" d="M105.1391,146.49194a17.92456,17.92456,0,1,0-17.92548,17.9292A17.92987,17.92987,0,0,0,105.1391,146.49194Z" transform="translate(-44.43451 -39.63312)"/>
    <path class="a" d="M112.03436,173.0636a17.92551,17.92551,0,1,0,17.92358,17.9328A17.92567,17.92567,0,0,0,112.03436,173.0636Z" transform="translate(-44.43451 -39.63312)"/>
  </g>
</svg>
